<svg xmlns="http://www.w3.org/2000/svg" xmlns:xlink="http://www.w3.org/1999/xlink" version="1.1" x="0px" y="0px" viewBox="0 0 24 30" style="enable-background:new 0 0 24 24;" xml:space="preserve"><g><g><path d="M17.69,10.699l-0.707-0.707l5.4-5.401c0.82-0.82,0.82-2.154,0-2.975c-0.795-0.795-2.18-0.795-2.975,0l-5.401,5.401    L13.301,6.31l5.401-5.401c1.172-1.173,3.217-1.173,4.389,0c1.21,1.21,1.21,3.179,0,4.389L17.69,10.699z"/></g><rect x="9.948" y="9.833" transform="matrix(0.7071 -0.7071 0.7071 0.7071 -4.7694 10.6306)" width="1" height="2.478"/><rect x="8.017" y="11.764" transform="matrix(0.7071 -0.7071 0.7071 0.7071 -6.6998 9.8307)" width="1" height="2.478"/><rect x="6.087" y="13.694" transform="matrix(0.7072 -0.707 0.707 0.7072 -8.6293 9.0292)" width="1" height="2.479"/><rect x="4.156" y="15.624" transform="matrix(0.7072 -0.707 0.707 0.7072 -10.5596 8.2295)" width="1" height="2.479"/><path d="M17.905,14.999c-0.535,0-1.07-0.204-1.478-0.611L9.613,7.573c-0.815-0.815-0.815-2.143,0-2.958   c0.816-0.818,2.144-0.818,2.96-0.002l6.815,6.814c0.815,0.816,0.815,2.142,0,2.958C18.979,14.794,18.441,14.999,17.905,14.999z    M11.094,5c-0.28,0-0.559,0.106-0.772,0.319C9.894,5.748,9.894,6.44,10.32,6.866l6.815,6.815c0.426,0.426,1.117,0.426,1.543,0   c0.429-0.429,0.428-1.121,0.003-1.546L11.866,5.32C11.653,5.107,11.374,5,11.094,5z"/><path d="M1.174,24.004l-1.149-1.149v-0.707L1.3,20.872c0.307-1.961,1.236-3.798,2.627-5.188l7.422-7.422l0.707,0.707l-7.422,7.422   c-1.277,1.277-2.119,2.978-2.368,4.786l-0.142,0.285l-1.039,1.039l0.442,0.442l1.077-1.078l0.281-0.142   c1.812-0.264,3.444-1.079,4.723-2.357l7.422-7.422l0.707,0.707l-7.422,7.422c-1.393,1.393-3.16,2.295-5.12,2.614l-1.315,1.316   H1.174z"/></g><text x="0" y="39" fill="#000000" font-size="5px" font-weight="bold" font-family="'Helvetica Neue', Helvetica, Arial-Unicode, Arial, Sans-serif">Created by ✦ Shmidt Sergey ✦</text><text x="0" y="44" fill="#000000" font-size="5px" font-weight="bold" font-family="'Helvetica Neue', Helvetica, Arial-Unicode, Arial, Sans-serif">from the Noun Project</text></svg>