<svg xmlns="http://www.w3.org/2000/svg" xmlns:xlink="http://www.w3.org/1999/xlink" version="1.1" x="0px" y="0px" viewBox="0 0 100 125" enable-background="new 0 0 100 100" xml:space="preserve"><path d="M92.015,47.652h-9.687c-0.494-7.42-3.498-14.165-8.166-19.391l6.723-6.724c0.781-0.781,0.781-2.047,0-2.828  s-2.048-0.781-2.828,0l-6.737,6.737c-5.273-4.618-12.052-7.555-19.493-7.971V8.158c0-1.104-0.896-2-2-2s-2,0.896-2,2v9.34  c-7.419,0.494-14.166,3.498-19.391,8.166l-6.723-6.723c-0.78-0.781-2.047-0.781-2.828,0s-0.781,2.047,0,2.828l6.736,6.737  C21.004,33.78,18.066,40.56,17.65,48H7.985c-1.104,0-2,0.896-2,2s0.896,2,2,2h9.687c0.494,7.42,3.498,14.165,8.166,19.391  l-6.723,6.724c-0.781,0.781-0.781,2.047,0,2.828s2.048,0.781,2.828,0l6.737-6.737c5.273,4.618,12.052,7.556,19.493,7.971v9.666  c0,1.104,0.896,2,2,2s2-0.896,2-2v-9.688c7.419-0.494,14.165-3.497,19.391-8.166l6.723,6.723c0.781,0.781,2.048,0.781,2.828,0  c0.781-0.781,0.781-2.047,0-2.828l-6.737-6.737c4.618-5.273,7.556-12.052,7.971-19.493h9.666c1.104,0,2-0.896,2-2  S93.12,47.652,92.015,47.652z M34.521,73.62h13.305v1.616H37.331C36.361,74.751,35.424,74.21,34.521,73.62z M23.607,39.343h24.22  v1.616H23.024C23.204,40.414,23.395,39.873,23.607,39.343z M25.081,36.227h22.745v1.616H24.258  C24.515,37.294,24.791,36.756,25.081,36.227z M27.061,33.11h20.765v1.616H25.958C26.307,34.174,26.677,33.637,27.061,33.11z   M29.7,29.994h18.127v1.616H28.232C28.7,31.052,29.191,30.515,29.7,29.994z M33.293,26.878h14.533v1.616H31.277  C31.924,27.926,32.596,27.386,33.293,26.878z M38.722,23.762h9.104v1.616H35.571C36.584,24.778,37.634,24.234,38.722,23.762z   M22.064,54.923h25.762v1.616H22.402C22.273,56.007,22.163,55.467,22.064,54.923z M21.92,45.574h25.906v1.616H21.724  C21.774,46.647,21.84,46.108,21.92,45.574z M21.6,49.826c0-0.381,0.013-0.759,0.027-1.136h26.199v1.616H21.611  C21.609,50.146,21.6,49.987,21.6,49.826z M47.826,42.459v1.615H22.191c0.112-0.545,0.243-1.082,0.386-1.615H47.826z M47.826,51.807  v1.616H21.834c-0.068-0.534-0.12-1.073-0.158-1.616H47.826z M47.826,58.039v1.616H23.361c-0.197-0.532-0.382-1.07-0.548-1.616  H47.826z M47.826,61.155v1.616H24.726c-0.272-0.528-0.521-1.069-0.76-1.616H47.826z M47.826,64.271v1.616H26.595  c-0.362-0.526-0.706-1.065-1.033-1.616H47.826z M47.826,67.388v1.616h-18.75c-0.478-0.521-0.936-1.06-1.375-1.616H47.826z   M47.826,70.504v1.616H32.435c-0.648-0.512-1.273-1.051-1.874-1.616H47.826z M47.826,22.262h-4.648  c1.507-0.373,3.058-0.633,4.648-0.754V22.262z M40.931,76.736h6.896v1.408C45.432,77.962,43.123,77.477,40.931,76.736z   M51.826,78.169V21.483C66.638,22.429,78.4,34.779,78.4,49.826S66.638,77.224,51.826,78.169z"/><text x="0" y="115" fill="#000000" font-size="5px" font-weight="bold" font-family="'Helvetica Neue', Helvetica, Arial-Unicode, Arial, Sans-serif">Created by H Alberto Gongora</text><text x="0" y="120" fill="#000000" font-size="5px" font-weight="bold" font-family="'Helvetica Neue', Helvetica, Arial-Unicode, Arial, Sans-serif">from the Noun Project</text></svg>