<svg xmlns="http://www.w3.org/2000/svg" xmlns:xlink="http://www.w3.org/1999/xlink" version="1.1" x="0px" y="0px" viewBox="0 0 100 125" style="enable-background:new 0 0 100 100;" xml:space="preserve"><g><path d="M75.1,42c0.4,0.4,0.9,0.5,1.4,0.5c0.5,0,1.1-0.2,1.5-0.6L89.2,30L77.9,18.1c-0.8-0.8-2-0.8-2.8-0.1c-0.8,0.8-0.8,2-0.1,2.8   l6.8,7.2h-5.9c-6.2,0-12.2,2.7-16.4,7.3L49,47L38.4,35.3C34.3,30.7,28.3,28,22.1,28h-8.5c-1.1,0-2,0.9-2,2s0.9,2,2,2h8.5   c5.1,0,10,2.2,13.4,6l10.8,12L35.5,62c-3.4,3.8-8.3,6-13.4,6h-8.5c-1.1,0-2,0.9-2,2s0.9,2,2,2h8.5c6.2,0,12.2-2.7,16.4-7.3L49,53   l10.6,11.7c4.2,4.6,10.1,7.3,16.4,7.3h5.9L75,79.2c-0.8,0.8-0.7,2.1,0.1,2.8c0.4,0.4,0.9,0.5,1.4,0.5c0.5,0,1.1-0.2,1.5-0.6   L89.2,70L77.9,58.1c-0.8-0.8-2-0.8-2.8-0.1c-0.8,0.8-0.8,2-0.1,2.8l6.8,7.2h-5.9c-5.1,0-10-2.2-13.4-6L51.7,50l10.8-12   c3.4-3.8,8.3-6,13.4-6h5.9L75,39.2C74.3,40,74.3,41.2,75.1,42z"/></g><text x="0" y="115" fill="#000000" font-size="5px" font-weight="bold" font-family="'Helvetica Neue', Helvetica, Arial-Unicode, Arial, Sans-serif">Created by Ananth</text><text x="0" y="120" fill="#000000" font-size="5px" font-weight="bold" font-family="'Helvetica Neue', Helvetica, Arial-Unicode, Arial, Sans-serif">from the Noun Project</text></svg>