<svg xmlns="http://www.w3.org/2000/svg" xmlns:xlink="http://www.w3.org/1999/xlink" version="1.1" x="0px" y="0px" viewBox="0 0 100 125" enable-background="new 0 0 100 100" xml:space="preserve"><path fill="#000000" d="M50,8C27.233,8,8,27.234,8,50c0,16.105,9.63,30.432,23.322,37.443c0.199,0.336,0.496,0.619,0.877,0.796  c0.273,0.127,0.56,0.188,0.843,0.188c0.086,0,0.169-0.025,0.254-0.036C38.446,90.7,44.102,92,50,92c22.767,0,42-19.234,42-42  S72.767,8,50,8z M87.943,48H68.886C67.922,39.259,60.742,32.078,52,31.114V12.057C71.049,13.102,86.898,28.951,87.943,48z M35,50  c0-8.131,6.869-15,15-15s15,6.869,15,15s-6.869,15-15,15S35,58.131,35,50z M12,50c0-19.928,16.288-36.862,36-37.943v19.058  C38.6,32.151,31,40.376,31,50c0,6.763,3.764,12.818,9.256,16.192l-8.023,17.234C20.307,76.931,12,64.23,12,50z M50,88  c-4.973,0-9.756-1.022-14.156-2.851l8.021-17.229C45.801,68.607,47.862,69,50,69c9.625,0,17.849-7.6,18.886-17h19.058  C86.862,71.712,69.928,88,50,88z"/><text x="0" y="115" fill="#000000" font-size="5px" font-weight="bold" font-family="'Helvetica Neue', Helvetica, Arial-Unicode, Arial, Sans-serif">Created by Austin Condiff</text><text x="0" y="120" fill="#000000" font-size="5px" font-weight="bold" font-family="'Helvetica Neue', Helvetica, Arial-Unicode, Arial, Sans-serif">from the Noun Project</text></svg>