<svg xmlns="http://www.w3.org/2000/svg" xmlns:xlink="http://www.w3.org/1999/xlink" version="1.1" x="0px" y="0px" viewBox="0 0 100 125" enable-background="new 0 0 100 100" xml:space="preserve"><g><path d="M81.4,74.6l-39-39c-0.8-0.8-2-0.8-2.8,0l-5,5c-0.8,0.8-0.8,2,0,2.8l39,39c0.798,0.796,1.997,0.802,2.801,0l5-5   C82.2,76.6,82.2,75.4,81.4,74.6z M41,39.8l4.9,4.9l-2.2,2.2L38.8,42L41,39.8z M75,78.2L45.1,48.3l2.2-2.2L77.2,76L75,78.2z M41,26   h-2v-8h2V26z M25.4,23.2l5.7,5.7l-1.4,1.4L24,24.6L25.4,23.2z M26,40h-8v-2h8V40z M28.9,48l1.4,1.4l-5.7,5.7L23.2,53.7L28.9,48z    M38,53h2v8h-2V53z M53,39h8v2h-8V39z M50.1,31l-1.4-1.4l5.7-5.7l1.399,1.4L50.1,31z"/></g><text x="0" y="115" fill="#000000" font-size="5px" font-weight="bold" font-family="'Helvetica Neue', Helvetica, Arial-Unicode, Arial, Sans-serif">Created by Setyo Ari Wibowo</text><text x="0" y="120" fill="#000000" font-size="5px" font-weight="bold" font-family="'Helvetica Neue', Helvetica, Arial-Unicode, Arial, Sans-serif">from the Noun Project</text></svg>