<svg xmlns:dc="http://purl.org/dc/elements/1.1/" xmlns:cc="http://creativecommons.org/ns#" xmlns:rdf="http://www.w3.org/1999/02/22-rdf-syntax-ns#" xmlns:svg="http://www.w3.org/2000/svg" xmlns="http://www.w3.org/2000/svg" xmlns:sodipodi="http://sodipodi.sourceforge.net/DTD/sodipodi-0.dtd" xmlns:inkscape="http://www.inkscape.org/namespaces/inkscape" version="1.1" x="0px" y="0px" viewBox="0 0 100 125"><g transform="translate(0,-952.36218)"><path style="text-indent:0;text-transform:none;direction:ltr;block-progression:tb;baseline-shift:baseline;color:#000000;enable-background:accumulate;" d="m 60.255439,962.93211 a 2.0002,2.0002 0 0 0 -1.174474,0.9294 l -35.487911,61.46699 a 2.0002,2.0002 0 0 0 -0.252162,1.2322 l 1.425289,13.5296 a 2.0002,2.0002 0 0 0 2.793984,1.6131 l 12.429541,-5.5305 a 2.0002,2.0002 0 0 0 0.910944,-0.8264 l 35.51007,-61.50521 a 2.0002,2.0002 0 0 0 -0.727929,-2.71667 l -13.855023,-7.99911 a 2.0002,2.0002 0 0 0 -1.572329,-0.1934 z m 1.313542,4.66266 10.372107,5.9883 -34.162196,59.17053 -9.337259,4.1519 -1.064971,-10.1321 34.192319,-59.17863 z" fill="#000000" fill-opacity="1" stroke="none" marker="none" visibility="visible" display="inline" overflow="visible"/></g><text x="0" y="115" fill="#000000" font-size="5px" font-weight="bold" font-family="'Helvetica Neue', Helvetica, Arial-Unicode, Arial, Sans-serif">Created by iconsphere</text><text x="0" y="120" fill="#000000" font-size="5px" font-weight="bold" font-family="'Helvetica Neue', Helvetica, Arial-Unicode, Arial, Sans-serif">from the Noun Project</text></svg>