<svg xmlns="http://www.w3.org/2000/svg" xmlns:xlink="http://www.w3.org/1999/xlink" version="1.1" x="0px" y="0px" viewBox="0 0 100 125" enable-background="new 0 0 100 100" xml:space="preserve"><path d="M68.91,46.236c0.297,0.147,0.609,0.216,0.92,0.216c0.766,0,1.502-0.425,1.865-1.157c1.002-2.027,1.447-4.301,1.287-6.575  c-0.162-2.274-0.912-4.463-2.172-6.331c-1.261-1.867-3.009-3.384-5.059-4.386c-2.025-0.984-4.298-1.429-6.559-1.278  c-1.146,0.074-2.014,1.063-1.938,2.209s1.052,2.003,2.21,1.94c1.543-0.106,3.092,0.199,4.465,0.866  c1.394,0.681,2.579,1.709,3.434,2.974c0.853,1.266,1.363,2.752,1.473,4.3c0.107,1.537-0.191,3.071-0.867,4.438  C67.46,44.48,67.881,45.728,68.91,46.236z"/><path d="M79.8,26.324c-2.341-3.472-5.555-6.264-9.292-8.075c-3.748-1.822-7.914-2.64-12.066-2.345  c-1.145,0.079-2.008,1.072-1.928,2.218c0.078,1.145,1.055,2.012,2.217,1.929c3.424-0.235,6.865,0.433,9.963,1.939  c3.08,1.492,5.729,3.795,7.66,6.659c1.933,2.861,3.074,6.182,3.306,9.604c0.237,3.42-0.431,6.87-1.933,9.976  c-0.498,1.034-0.064,2.277,0.969,2.776c0.291,0.142,0.6,0.208,0.902,0.208c0.772,0,1.516-0.433,1.873-1.175  c1.814-3.758,2.622-7.932,2.336-12.068C83.527,33.819,82.143,29.791,79.8,26.324z"/><path d="M94.639,37.197c-0.43-6.045-2.449-11.901-5.842-16.938c-3.4-5.036-8.074-9.104-13.525-11.766  c-5.459-2.656-11.539-3.837-17.597-3.407c-1.146,0.08-2.008,1.075-1.927,2.22c0.08,1.145,1.059,2.015,2.22,1.928  c5.33-0.372,10.681,0.661,15.482,2.997c4.792,2.341,8.907,5.922,11.899,10.354c2.985,4.432,4.764,9.586,5.142,14.905  c0.372,5.322-0.671,10.679-3.021,15.492c-0.502,1.031-0.074,2.275,0.959,2.778c0.295,0.144,0.604,0.212,0.909,0.212  c0.771,0,1.511-0.431,1.87-1.168C93.877,49.336,95.063,43.248,94.639,37.197z"/><path d="M70.316,59.4c-0.037-0.008-3.778-0.969-6.221-4.078c-0.002-0.002-0.003-0.004-0.004-0.004  c-2.223-2.829-4.152-6.361-6.197-10.103c-5.125-9.374-10.937-20-23.187-21.08c-0.001,0-0.003-0.001-0.004-0.001  c-1.684-0.151-3.979,0.072-5.444,0.258c-0.01-0.67-0.107-1.496-0.418-2.351c0-0.002,0-0.004-0.001-0.006  c-0.708-1.939-2.127-3.488-3.998-4.361c-1.873-0.877-3.974-0.969-5.911-0.26c-4.008,1.457-6.083,5.903-4.625,9.91  c0,0.001,0.001,0.001,0.001,0.002c0.31,0.847,0.759,1.538,1.179,2.057c-1.028,0.651-2.488,1.635-3.484,2.544  c-9.537,8.692-6.84,20.85-4.461,31.574c0.915,4.122,1.776,8.018,1.969,11.57c-0.001,0.039-0.008,0.076-0.007,0.113  c0.127,3.967-2.131,7.104-2.148,7.129c-1.907,2.564-2.242,6.641-0.763,9.277C7.792,93.73,10.223,95,12.726,95  c0.825,0,1.66-0.139,2.46-0.43l8.132-2.959c0.145-0.053,0.278-0.121,0.403-0.201c0.143-0.02,0.285-0.051,0.426-0.102l8.605-3.132  c1.203,2.226,3.065,4.007,5.4,5.097c1.595,0.744,3.297,1.117,5.006,1.117c1.368,0,2.74-0.24,4.063-0.722  c2.979-1.084,5.357-3.262,6.696-6.134c1.089-2.335,1.371-4.898,0.86-7.377l9.287-3.379l8.134-2.961  c3.225-1.172,5.274-4.601,4.668-7.803C76.303,63.044,73.426,60.139,70.316,59.4z M50.149,85.779c-0.87,1.863-2.415,3.279-4.35,3.982  c-1.935,0.704-4.025,0.612-5.89-0.257c-1.322-0.616-2.412-1.579-3.189-2.772l14.09-5.129C50.984,83.02,50.768,84.455,50.149,85.779z   M70.777,69.912l-8.135,2.96l-39.918,14.53c-0.143,0.052-0.275,0.119-0.398,0.197c-0.145,0.02-0.288,0.053-0.431,0.104l-8.133,2.959  c-1.294,0.47-2.949-0.045-3.543-1.104c-0.69-1.231-0.466-3.5,0.472-4.763c0.127-0.171,3.057-4.185,2.966-9.526  c0.01-0.097,0.02-0.192,0.016-0.293c-0.198-3.935-1.108-8.035-2.071-12.375C9.259,52.043,7.047,42.071,14.804,35  c1.1-1.002,3.253-2.338,3.99-2.768c0.938-0.548,1.512-1.438,1.573-2.443s-0.399-1.958-1.243-2.601  c-0.006-0.004-0.624-0.51-0.908-1.283c0-0.001,0-0.001,0-0.001c-0.327-0.897-0.283-1.868,0.119-2.734  c0.404-0.865,1.121-1.522,2.02-1.848c0.893-0.328,1.864-0.285,2.73,0.12c0.866,0.404,1.522,1.119,1.849,2.018  c0,0.001,0.001,0.001,0.001,0.002C25.213,24.226,25.069,25,25.07,25c-0.24,1.056,0.018,2.081,0.705,2.814  c0.565,0.603,1.348,0.926,2.202,0.926c0.185,0,0.373-0.015,0.563-0.046c1.035-0.167,4.096-0.571,5.795-0.418  c0.001,0,0.002,0,0.003,0c10.039,0.883,15.057,10.06,19.908,18.935c2.13,3.895,4.141,7.574,6.574,10.675  c0.003,0.003,0.005,0.003,0.007,0.007c3.368,4.289,8.319,5.504,8.528,5.553c1.529,0.363,3.162,1.959,3.426,3.346  C73.007,67.982,72.07,69.439,70.777,69.912z"/><text x="0" y="115" fill="#000000" font-size="5px" font-weight="bold" font-family="'Helvetica Neue', Helvetica, Arial-Unicode, Arial, Sans-serif">Created by To Uyen</text><text x="0" y="120" fill="#000000" font-size="5px" font-weight="bold" font-family="'Helvetica Neue', Helvetica, Arial-Unicode, Arial, Sans-serif">from the Noun Project</text></svg>