<svg xmlns="http://www.w3.org/2000/svg" viewBox="0 0 68 72.5" x="0px" y="0px"><g fill="#000000" fill-rule="evenodd" transform="translate(-1)"><path d="M25.9916311,12.6108765 L37.2405475,36.0868759 C37.7178543,37.0829944 38.9123014,37.5035744 39.9084199,37.0262676 C40.9045384,36.5489609 41.3251184,35.3545137 40.8478116,34.3583952 L27.8036321,7.13575964 C27.0780078,5.62141345 24.9219922,5.62141345 24.1963679,7.13575964 L1.19636794,55.1357596 C0.560238511,56.4633341 1.5278877,58 3,58 L28,58 C29.1045695,58 30,57.1045695 30,56 C30,54.8954305 29.1045695,54 28,54 L6.18000031,54 L25.9916311,12.6108765 Z"/><path d="M10 42C8.8954305 42 8 42.8954305 8 44 8 45.1045695 8.8954305 46 10 46L19 46C20.1045695 46 21 45.1045695 21 44 21 42.8954305 20.1045695 42 19 42L10 42zM29 25C27.8954305 25 27 25.8954305 27 27 27 28.1045695 27.8954305 29 29 29L34 29C35.1045695 29 36 28.1045695 36 27 36 25.8954305 35.1045695 25 34 25L29 25zM37 39C35.8954305 39 35 39.8954305 35 41 35 42.1045695 35.8954305 43 37 43L42 43C43.1045695 43 44 42.1045695 44 41 44 39.8954305 43.1045695 39 42 39L37 39zM52 34C50.8954305 34 50 34.8954305 50 36 50 37.1045695 50.8954305 38 52 38L55 38C56.1045695 38 57 37.1045695 57 36 57 34.8954305 56.1045695 34 55 34L52 34zM55 47C53.8954305 47 53 47.8954305 53 49 53 50.1045695 53.8954305 51 55 51L62 51C63.1045695 51 64 50.1045695 64 49 64 47.8954305 63.1045695 47 62 47L55 47z"/><path d="M32.3012747 54L48.0102416 24.3020427 63.6945508 54 32.3012747 54zM46.2312305 19.0664828L27.2312305 55.0664828C26.5282796 56.3983898 27.4939733 58 29 58L67 58C68.5060267 58 69.4717204 56.3983898 68.7687695 55.0664828L49.7687695 19.0664828C49.0182816 17.6445057 46.9817184 17.6445057 46.2312305 19.0664828zM67 8C67 3.581722 63.418278 0 59 0 54.581722 0 51 3.581722 51 8 51 12.418278 54.581722 16 59 16 63.418278 16 67 12.418278 67 8zM55 8C55 5.790861 56.790861 4 59 4 61.209139 4 63 5.790861 63 8 63 10.209139 61.209139 12 59 12 56.790861 12 55 10.209139 55 8z"/></g><text x="0" y="73" fill="#000000" font-size="5px" font-weight="bold" font-family="'Helvetica Neue', Helvetica, Arial-Unicode, Arial, Sans-serif">Created by Andrejs Kirma</text><text x="0" y="78" fill="#000000" font-size="5px" font-weight="bold" font-family="'Helvetica Neue', Helvetica, Arial-Unicode, Arial, Sans-serif">from the Noun Project</text></svg>